<?xml version="1.0" encoding="UTF-8"?>
<svg xmlns="http://www.w3.org/2000/svg" xmlns:xlink="http://www.w3.org/1999/xlink" width="165px" height="90px" viewBox="0 0 165 90" version="1.1">
<g id="surface1">
<path style=" stroke:none;fill-rule:nonzero;fill:rgb(0%,0%,0%);fill-opacity:1;" d="M 7.011719 26.339844 C 6.847656 26.355469 5.960938 26.429688 5.054688 26.488281 L 3.402344 26.59375 L 5.074219 26.851562 C 8.0625 27.300781 10.558594 28.410156 12.046875 29.984375 C 12.703125 30.675781 12.375 30.613281 17.117188 30.976562 C 27.347656 31.753906 36.421875 33.765625 43.414062 36.808594 C 44.199219 37.15625 41.023438 34.933594 38.980469 33.71875 C 32.855469 30.074219 23.65625 27.238281 15.367188 26.476562 C 13.242188 26.28125 7.941406 26.191406 7.011719 26.339844 Z M 7.011719 26.339844 "/>
<path style=" stroke:none;fill-rule:nonzero;fill:rgb(0%,0%,0%);fill-opacity:1;" d="M 14.644531 32.761719 C 14.644531 32.820312 14.871094 33.121094 15.140625 33.421875 C 15.40625 33.734375 16.066406 34.605469 16.582031 35.355469 L 17.511719 36.71875 L 18.707031 36.808594 C 21.71875 37.035156 27.554688 37.695312 29.699219 38.039062 C 35.371094 38.953125 41.929688 40.875 45.933594 42.796875 C 48.140625 43.859375 51.707031 46.199219 52.921875 47.414062 C 53.335938 47.835938 53.726562 48.136719 53.769531 48.089844 C 53.976562 47.941406 50.921875 43.90625 49.933594 42.988281 C 45.476562 38.925781 38.816406 36.359375 27.390625 34.351562 C 23.039062 33.585938 14.644531 32.535156 14.644531 32.761719 Z M 14.644531 32.761719 "/>
<path style=" stroke:none;fill-rule:nonzero;fill:rgb(0%,0%,0%);fill-opacity:1;" d="M 144.644531 34.53125 C 144.519531 34.636719 143.15625 37.15625 141.589844 40.125 C 140.042969 43.09375 138.621094 45.675781 138.476562 45.855469 C 138.230469 46.140625 138 46.199219 137.136719 46.199219 C 136.394531 46.199219 136.125 46.261719 136.167969 46.378906 C 136.226562 46.53125 137.074219 46.589844 139.175781 46.621094 C 141.695312 46.648438 142.105469 46.621094 142.105469 46.425781 C 142.105469 46.289062 141.898438 46.183594 141.550781 46.171875 C 141.21875 46.15625 140.808594 46.140625 140.621094 46.125 C 140.4375 46.125 140.230469 46.078125 140.167969 46.035156 C 140.085938 45.988281 140.476562 45.164062 140.992188 44.203125 L 141.941406 42.449219 L 148.871094 42.449219 L 149.695312 44.011719 C 150.851562 46.183594 150.851562 46.109375 149.695312 46.171875 C 148.996094 46.199219 148.707031 46.273438 148.707031 46.441406 C 148.707031 46.605469 149.179688 46.648438 151.386719 46.648438 C 153.613281 46.648438 154.070312 46.621094 154.070312 46.425781 C 154.070312 46.183594 153.203125 45.960938 152.851562 46.109375 C 152.480469 46.273438 152.109375 45.660156 149.203125 40.125 C 147.632812 37.15625 146.273438 34.636719 146.167969 34.53125 C 146.066406 34.441406 145.714844 34.351562 145.40625 34.351562 C 145.097656 34.351562 144.746094 34.441406 144.644531 34.53125 Z M 146.707031 38.355469 C 147.570312 39.988281 148.335938 41.445312 148.417969 41.578125 C 148.542969 41.835938 148.3125 41.851562 145.425781 41.851562 C 143.714844 41.851562 142.3125 41.820312 142.3125 41.773438 C 142.3125 41.746094 142.910156 40.574219 143.652344 39.179688 C 144.789062 37.050781 144.972656 36.570312 144.789062 36.238281 C 144.601562 35.851562 144.683594 35.398438 144.992188 35.398438 C 145.078125 35.398438 145.839844 36.734375 146.707031 38.355469 Z M 146.707031 38.355469 "/>
<path style=" stroke:none;fill-rule:nonzero;fill:rgb(0%,0%,0%);fill-opacity:1;" d="M 56.820312 34.648438 C 56.65625 34.84375 57.730469 35.144531 58.265625 35.039062 C 59.195312 34.875 59.195312 34.875 59.152344 40.664062 L 59.089844 46.125 L 57.957031 46.199219 C 57.335938 46.246094 56.820312 46.335938 56.820312 46.425781 C 56.820312 46.636719 62.90625 46.710938 63.195312 46.5 C 63.503906 46.273438 63.234375 46.183594 62.039062 46.125 C 61.441406 46.09375 60.886719 46.066406 60.800781 46.066406 C 60.699219 46.050781 60.636719 44.863281 60.636719 43.425781 L 60.636719 40.800781 L 66.1875 40.800781 L 66.246094 41.429688 C 66.328125 42.285156 66.785156 42.34375 66.886719 41.519531 L 66.96875 40.875 L 66.988281 41.503906 C 67.011719 41.96875 67.113281 42.148438 67.339844 42.148438 C 67.589844 42.148438 67.648438 41.863281 67.648438 40.5 C 67.648438 39.164062 67.589844 38.851562 67.359375 38.851562 C 67.15625 38.851562 67.03125 39.058594 66.96875 39.480469 L 66.886719 40.125 L 66.867188 39.480469 C 66.804688 38.625 66.328125 38.699219 66.246094 39.570312 L 66.1875 40.199219 L 60.636719 40.199219 L 60.636719 35.113281 L 64.101562 35.070312 C 66 35.039062 67.671875 35.054688 67.816406 35.085938 C 67.980469 35.113281 68.0625 35.476562 68.0625 36.210938 C 68.0625 37.363281 68.164062 37.589844 68.597656 37.335938 C 68.765625 37.230469 68.886719 37.230469 68.992188 37.351562 C 69.339844 37.769531 69.507812 37.363281 69.507812 36 L 69.507812 34.5 L 63.234375 34.5 C 59.253906 34.5 56.90625 34.558594 56.820312 34.648438 Z M 59.957031 38.878906 C 59.9375 39.570312 59.894531 39.015625 59.894531 37.648438 C 59.894531 36.285156 59.9375 35.730469 59.957031 36.40625 C 60 37.09375 60 38.203125 59.957031 38.878906 Z M 59.957031 44.746094 C 59.9375 45.421875 59.894531 44.820312 59.894531 43.425781 C 59.894531 42.015625 59.9375 41.476562 59.957031 42.195312 C 60 42.914062 60 44.070312 59.957031 44.746094 Z M 59.957031 44.746094 "/>
<path style=" stroke:none;fill-rule:nonzero;fill:rgb(0%,0%,0%);fill-opacity:1;" d="M 93.535156 34.636719 C 93.371094 34.84375 93.761719 34.980469 94.730469 35.023438 C 95.203125 35.054688 95.660156 35.085938 95.761719 35.085938 C 95.84375 35.101562 95.886719 37.574219 95.863281 40.605469 L 95.804688 46.125 L 94.667969 46.199219 C 94.050781 46.246094 93.535156 46.335938 93.535156 46.425781 C 93.535156 46.589844 99.269531 46.726562 99.804688 46.574219 C 100.382812 46.410156 99.660156 46.15625 98.546875 46.140625 L 97.453125 46.125 L 97.390625 43.453125 L 97.351562 40.800781 L 102.898438 40.800781 L 102.960938 41.429688 C 103.042969 42.285156 103.496094 42.34375 103.597656 41.519531 L 103.683594 40.875 L 103.703125 41.503906 C 103.722656 41.96875 103.828125 42.148438 104.054688 42.148438 C 104.300781 42.148438 104.363281 41.863281 104.363281 40.5 C 104.363281 39.164062 104.300781 38.851562 104.074219 38.851562 C 103.867188 38.851562 103.742188 39.058594 103.683594 39.480469 L 103.597656 40.125 L 103.578125 39.480469 C 103.515625 38.625 103.042969 38.699219 102.960938 39.570312 L 102.898438 40.199219 L 97.351562 40.199219 L 97.351562 35.113281 L 100.816406 35.070312 C 102.710938 35.039062 104.382812 35.054688 104.527344 35.085938 C 104.691406 35.113281 104.773438 35.476562 104.773438 36.238281 C 104.773438 37.125 104.835938 37.351562 105.085938 37.351562 C 105.332031 37.351562 105.394531 37.109375 105.433594 36.253906 L 105.476562 35.175781 L 105.578125 36.300781 C 105.660156 36.929688 105.785156 37.410156 105.910156 37.394531 C 106.03125 37.363281 106.136719 36.71875 106.175781 35.925781 L 106.238281 34.5 L 99.949219 34.5 C 96.296875 34.5 93.617188 34.558594 93.535156 34.636719 Z M 96.667969 38.878906 C 96.648438 39.570312 96.609375 39.015625 96.609375 37.648438 C 96.609375 36.285156 96.648438 35.730469 96.667969 36.40625 C 96.710938 37.09375 96.710938 38.203125 96.667969 38.878906 Z M 96.667969 44.746094 C 96.648438 45.421875 96.609375 44.820312 96.609375 43.425781 C 96.609375 42.015625 96.648438 41.476562 96.667969 42.195312 C 96.710938 42.914062 96.710938 44.070312 96.667969 44.746094 Z M 96.667969 44.746094 "/>
<path style=" stroke:none;fill-rule:nonzero;fill:rgb(0%,0%,0%);fill-opacity:1;" d="M 116.035156 34.605469 C 115.972656 34.648438 115.914062 35.429688 115.914062 36.316406 L 115.914062 37.933594 L 114.839844 37.980469 C 114.035156 38.011719 113.746094 38.085938 113.746094 38.25 C 113.746094 38.414062 114.035156 38.488281 114.820312 38.519531 L 115.871094 38.566406 L 115.953125 41.746094 C 116.015625 44.59375 116.058594 44.984375 116.449219 45.523438 C 117.460938 46.964844 120.738281 47.25 122.882812 46.09375 C 123.253906 45.898438 123.503906 45.660156 123.441406 45.585938 C 123.214844 45.328125 122.367188 45.449219 121.089844 45.929688 L 119.789062 46.410156 L 119.046875 46.125 C 117.519531 45.511719 117.460938 45.359375 117.398438 41.773438 L 117.335938 38.566406 L 119.667969 38.519531 C 121.5625 38.488281 121.996094 38.429688 121.996094 38.25 C 121.996094 38.070312 121.585938 38.011719 119.6875 37.980469 L 117.375 37.933594 L 117.316406 36.253906 C 117.234375 34.066406 116.882812 34.050781 116.71875 36.226562 L 116.613281 37.875 L 116.574219 36.269531 C 116.53125 34.800781 116.386719 34.351562 116.035156 34.605469 Z M 116.675781 43.003906 C 116.65625 43.816406 116.613281 43.15625 116.613281 41.550781 C 116.613281 39.945312 116.65625 39.285156 116.675781 40.078125 C 116.71875 40.890625 116.71875 42.210938 116.675781 43.003906 Z M 116.675781 43.003906 "/>
<path style=" stroke:none;fill-rule:nonzero;fill:rgb(0%,0%,0%);fill-opacity:1;" d="M 154.789062 34.636719 C 154.625 34.84375 155.015625 34.980469 155.988281 35.023438 C 156.460938 35.054688 156.914062 35.085938 157.019531 35.085938 C 157.101562 35.101562 157.140625 37.574219 157.121094 40.605469 L 157.058594 46.125 L 155.925781 46.199219 C 155.304688 46.246094 154.789062 46.335938 154.789062 46.425781 C 154.789062 46.515625 155.988281 46.589844 157.84375 46.621094 C 160.441406 46.648438 160.875 46.621094 160.875 46.425781 C 160.875 46.199219 160.605469 46.15625 159.328125 46.140625 L 158.710938 46.125 L 158.648438 40.605469 L 158.605469 35.101562 L 159.265625 35.101562 C 160.257812 35.101562 160.875 34.949219 160.875 34.710938 C 160.875 34.546875 160.296875 34.5 157.90625 34.5 C 156.253906 34.5 154.875 34.558594 154.789062 34.636719 Z M 157.925781 43.320312 C 157.90625 44.773438 157.882812 43.546875 157.882812 40.574219 C 157.882812 37.605469 157.90625 36.40625 157.925781 37.921875 C 157.96875 39.433594 157.96875 41.863281 157.925781 43.320312 Z M 157.925781 43.320312 "/>
<path style=" stroke:none;fill-rule:nonzero;fill:rgb(0%,0%,0%);fill-opacity:1;" d="M 72.394531 35.535156 C 72.105469 35.941406 72.125 36.089844 72.515625 36.359375 C 73.175781 36.855469 74.867188 36.554688 74.867188 35.953125 C 74.867188 35.445312 74.476562 35.25 73.488281 35.25 C 72.828125 35.25 72.558594 35.324219 72.394531 35.535156 Z M 72.394531 35.535156 "/>
<path style=" stroke:none;fill-rule:nonzero;fill:rgb(0%,0%,0%);fill-opacity:1;" d="M 109.105469 35.535156 C 108.816406 35.941406 108.839844 36.089844 109.230469 36.359375 C 109.929688 36.871094 111.582031 36.523438 111.582031 35.863281 C 111.582031 35.445312 111.148438 35.25 110.199219 35.25 C 109.539062 35.25 109.269531 35.324219 109.105469 35.535156 Z M 109.105469 35.535156 "/>
<path style=" stroke:none;fill-rule:nonzero;fill:rgb(0%,0%,0%);fill-opacity:1;" d="M 83.511719 38.023438 C 82.996094 38.144531 82.148438 38.519531 81.632812 38.851562 C 81.097656 39.179688 80.625 39.449219 80.5625 39.449219 C 80.292969 39.449219 80.457031 39.074219 80.851562 38.773438 C 81.117188 38.566406 81.222656 38.355469 81.140625 38.191406 C 81.035156 37.980469 80.746094 37.949219 79.21875 37.980469 C 77.816406 38.011719 77.445312 38.070312 77.445312 38.25 C 77.445312 38.414062 77.757812 38.488281 78.582031 38.550781 L 79.714844 38.625 L 79.777344 42.285156 C 79.820312 45.121094 79.757812 45.976562 79.570312 46.078125 C 79.425781 46.140625 78.847656 46.199219 78.3125 46.199219 C 77.613281 46.199219 77.34375 46.261719 77.386719 46.378906 C 77.507812 46.621094 82.871094 46.738281 83.203125 46.5 C 83.488281 46.289062 83.304688 46.214844 82.273438 46.140625 L 81.367188 46.078125 L 81.304688 43.484375 C 81.28125 42.046875 81.304688 40.738281 81.34375 40.574219 C 81.488281 40.15625 83.058594 39.03125 83.984375 38.683594 C 84.996094 38.308594 86.335938 38.324219 87.222656 38.714844 C 88.851562 39.433594 89.101562 40.066406 89.101562 43.46875 C 89.101562 46.304688 89.160156 46.199219 87.613281 46.199219 C 87.058594 46.199219 86.832031 46.261719 86.871094 46.378906 C 86.933594 46.53125 87.78125 46.589844 89.882812 46.621094 C 92.398438 46.648438 92.8125 46.621094 92.8125 46.425781 C 92.8125 46.214844 92.585938 46.171875 91.164062 46.140625 L 90.648438 46.125 L 90.542969 43.199219 C 90.421875 40.171875 90.234375 39.523438 89.347656 38.804688 C 88.316406 37.964844 85.40625 37.574219 83.511719 38.023438 Z M 89.65625 40.53125 C 89.59375 40.648438 89.53125 40.605469 89.53125 40.441406 C 89.511719 40.273438 89.574219 40.183594 89.636719 40.246094 C 89.699219 40.289062 89.71875 40.425781 89.65625 40.53125 Z M 89.65625 40.53125 "/>
<path style=" stroke:none;fill-rule:nonzero;fill:rgb(0%,0%,0%);fill-opacity:1;" d="M 70.640625 38.101562 C 70.394531 38.386719 70.785156 38.535156 71.878906 38.578125 L 72.910156 38.625 L 72.910156 46.125 L 71.714844 46.171875 C 70.886719 46.199219 70.539062 46.273438 70.597656 46.394531 C 70.640625 46.515625 71.546875 46.589844 73.589844 46.621094 C 76.066406 46.648438 76.519531 46.621094 76.519531 46.441406 C 76.519531 46.214844 75.445312 45.976562 74.867188 46.078125 C 74.601562 46.125 74.539062 45.523438 74.457031 42.074219 L 74.351562 38.023438 L 72.558594 37.980469 C 71.402344 37.949219 70.722656 37.996094 70.640625 38.101562 Z M 70.640625 38.101562 "/>
<path style=" stroke:none;fill-rule:nonzero;fill:rgb(0%,0%,0%);fill-opacity:1;" d="M 107.351562 38.101562 C 107.105469 38.398438 107.496094 38.550781 108.609375 38.550781 L 109.726562 38.550781 L 109.683594 42.328125 L 109.621094 46.125 L 108.425781 46.171875 C 107.601562 46.199219 107.25 46.273438 107.3125 46.394531 C 107.351562 46.515625 108.28125 46.589844 110.40625 46.621094 C 113.003906 46.648438 113.4375 46.621094 113.4375 46.425781 C 113.4375 46.214844 113.210938 46.171875 111.789062 46.140625 L 111.273438 46.125 L 111.066406 38.023438 L 109.269531 37.980469 C 108.199219 37.949219 107.4375 37.996094 107.351562 38.101562 Z M 107.351562 38.101562 "/>
<path style=" stroke:none;fill-rule:nonzero;fill:rgb(0%,0%,0%);fill-opacity:1;" d="M 19.324219 39.628906 C 20.210938 40.828125 22.335938 42.316406 23.945312 42.855469 C 24.6875 43.109375 28.070312 43.90625 31.472656 44.625 C 39.890625 46.394531 45.105469 47.550781 46.136719 47.863281 C 50.015625 49.066406 53.933594 52.035156 56.925781 56.054688 C 57.316406 56.566406 57.667969 56.96875 57.6875 56.941406 C 57.832031 56.835938 56.675781 54.226562 55.933594 52.964844 C 54.65625 50.835938 53.355469 49.441406 50.945312 47.683594 C 46.507812 44.429688 40.238281 42.105469 31.351562 40.441406 C 27.800781 39.78125 20.769531 38.851562 19.265625 38.851562 L 18.75 38.851562 Z M 19.324219 39.628906 "/>
<path style=" stroke:none;fill-rule:nonzero;fill:rgb(0%,0%,0%);fill-opacity:1;" d="M 124.679688 40.964844 C 124.347656 41.339844 125.109375 41.398438 130.0625 41.371094 C 134.453125 41.324219 135.195312 41.296875 135.195312 41.101562 C 135.195312 40.90625 134.453125 40.875 130 40.828125 C 126.390625 40.800781 124.761719 40.84375 124.679688 40.964844 Z M 124.679688 40.964844 "/>
</g>
</svg>
